<svg width="757" height="564" viewBox="0 0 757 564" fill="none" xmlns="http://www.w3.org/2000/svg">
<path d="M12 12H745V479H12V12Z" stroke="black" stroke-width="24"/>
<path d="M602 245C602 361.907 504.578 457 384 457C263.422 457 166 361.907 166 245C166 128.093 263.422 33 384 33C504.578 33 602 128.093 602 245Z" stroke="black" stroke-width="14"/>
<path d="M514 245C514 304.069 499.114 357.117 475.521 395.108C451.845 433.234 420.304 455 387 455C353.696 455 322.155 433.234 298.479 395.108C274.886 357.117 260 304.069 260 245C260 185.931 274.886 132.883 298.479 94.8916C322.155 56.7659 353.696 35 387 35C420.304 35 451.845 56.7659 475.521 94.8916C499.114 132.883 514 185.931 514 245Z" stroke="black" stroke-width="18"/>
<path d="M175 309C272 346 488 352.2 592 309M175 181C285 124 501.6 126.6 592 181M387 39V451M387 485L325 555H450L387 485Z" stroke="black" stroke-width="18"/>
</svg>
